<svg width="374" height="57" viewBox="0 0 374 57" fill="none" xmlns="http://www.w3.org/2000/svg">
<g clip-path="url(#clip0_2250_624)">
<path d="M357.298 33.477H358.386C366.93 33.477 373.855 26.56 373.855 18.026C373.855 13.762 372.123 9.89903 369.323 7.10203C367.888 5.66479 366.183 4.52506 364.306 3.74821C362.429 2.97137 360.417 2.57268 358.386 2.57503H322.289L328.555 10.301H358.386C362.65 10.301 366.121 13.767 366.121 18.026C366.121 22.286 362.65 25.751 358.386 25.751H322.289V54.077H330.024V33.477H347.345L364.048 54.077H374L357.298 33.477ZM47.034 7.10203C45.5985 5.66463 43.8934 4.5248 42.0164 3.74795C40.1394 2.97109 38.1274 2.5725 36.096 2.57503H0L6.265 10.301H36.096C40.361 10.301 43.831 13.767 43.831 18.026C43.831 22.286 40.361 25.751 36.096 25.751H0V54.077H7.735V33.477H36.096C44.641 33.477 51.566 26.56 51.566 18.026C51.566 13.762 49.834 9.89903 47.034 7.10203ZM85.084 25.751V54.077H92.819V33.477H118.788L123.254 25.751H85.084ZM85.084 2.57503V10.301H132.185L136.651 2.58103V2.57503H85.084ZM239.659 25.751H215.109L208.843 33.476H231.399C229.104 42.35 221.018 48.927 211.422 48.927C200.046 48.927 190.795 39.687 190.795 28.327C190.795 16.965 200.046 7.72503 211.422 7.72503C216.64 7.72503 221.405 9.66703 225.04 12.87L229.919 6.85503C224.777 2.42299 218.211 -0.0102891 211.422 3.27038e-05C195.756 3.27038e-05 183.06 12.68 183.06 28.326C183.06 36.149 186.237 43.231 191.368 48.356C194 50.9908 197.126 53.0799 200.568 54.5035C204.009 55.9271 207.698 56.6573 211.422 56.652C215.146 56.6571 218.835 55.9268 222.276 54.503C225.718 53.0792 228.844 50.9899 231.476 48.355C235.539 44.3064 238.273 39.1166 239.314 33.476C239.623 31.808 239.742 26.596 239.659 25.751ZM72.193 2.57503H64.458V54.077H72.193V2.57503ZM281.037 7.72503C292.412 7.72503 301.663 16.965 301.663 28.326C301.663 39.687 292.412 48.927 281.037 48.927C269.661 48.927 260.41 39.687 260.41 28.327C260.41 16.965 269.661 7.72503 281.037 7.72503ZM281.037 3.27038e-05C265.371 3.27038e-05 252.675 12.68 252.675 28.326C252.675 43.972 265.371 56.652 281.037 56.652C296.702 56.652 309.398 43.972 309.398 28.326C309.398 12.68 296.702 3.27038e-05 281.037 3.27038e-05Z" fill="#484D4C"/>
<path d="M180.729 54.0772H171.798L157.122 28.6872L164.852 26.6172L180.729 54.0772ZM159.288 42.7312L131.969 35.4182L121.181 54.0782H130.117L135.702 44.4162L164.76 52.1932L159.288 42.7312ZM150.96 2.5752L146.489 10.3012L150.45 17.1412L141.085 19.6482L135.614 29.1142L162.181 22.0022L150.96 2.5752Z" fill="#0087C7"/>
</g>
<defs>
<clipPath id="clip0_2250_624">
<rect width="374" height="57" fill="white"/>
</clipPath>
</defs>
</svg>
